<mxfile host="65bd71144e" pages="3">
    <diagram id="C5RBs43oDa-KdzZeNtuy" name="Page-1">
        <mxGraphModel dx="945" dy="712" grid="1" gridSize="10" guides="1" tooltips="1" connect="1" arrows="1" fold="1" page="1" pageScale="1" pageWidth="1169" pageHeight="1654" math="0" shadow="0">
            <root>
                <mxCell id="WIyWlLk6GJQsqaUBKTNV-0"/>
                <mxCell id="WIyWlLk6GJQsqaUBKTNV-1" parent="WIyWlLk6GJQsqaUBKTNV-0"/>
                <mxCell id="YJMpaRMmq_8bor_oWh7W-15" value="" style="edgeStyle=orthogonalEdgeStyle;rounded=0;orthogonalLoop=1;jettySize=auto;html=1;endArrow=none;endFill=0;strokeWidth=2;" parent="WIyWlLk6GJQsqaUBKTNV-1" source="YJMpaRMmq_8bor_oWh7W-7" target="YJMpaRMmq_8bor_oWh7W-14" edge="1">
                    <mxGeometry relative="1" as="geometry"/>
                </mxCell>
                <mxCell id="3" style="edgeStyle=orthogonalEdgeStyle;rounded=0;orthogonalLoop=1;jettySize=auto;html=1;exitX=0.5;exitY=0;exitDx=0;exitDy=0;entryX=0.5;entryY=1;entryDx=0;entryDy=0;endArrow=none;endFill=0;strokeWidth=2;" edge="1" parent="WIyWlLk6GJQsqaUBKTNV-1" source="YJMpaRMmq_8bor_oWh7W-7">
                    <mxGeometry relative="1" as="geometry">
                        <mxPoint x="300" y="119.99999999999989" as="targetPoint"/>
                    </mxGeometry>
                </mxCell>
                <mxCell id="YJMpaRMmq_8bor_oWh7W-7" value="&lt;font style=&quot;font-size: 12px&quot;&gt;Вызов процедуры&lt;br&gt;sub_1&lt;/font&gt;" style="verticalLabelPosition=middle;verticalAlign=middle;html=1;shape=process;whiteSpace=wrap;rounded=0;size=0.14;arcSize=6;labelPosition=center;align=center;strokeWidth=2;" parent="WIyWlLk6GJQsqaUBKTNV-1" vertex="1">
                    <mxGeometry x="160" y="160" width="280" height="80" as="geometry"/>
                </mxCell>
                <mxCell id="YJMpaRMmq_8bor_oWh7W-24" value="" style="edgeStyle=orthogonalEdgeStyle;rounded=0;orthogonalLoop=1;jettySize=auto;html=1;endArrow=none;endFill=0;strokeWidth=2;" parent="WIyWlLk6GJQsqaUBKTNV-1" source="YJMpaRMmq_8bor_oWh7W-14" target="YJMpaRMmq_8bor_oWh7W-23" edge="1">
                    <mxGeometry relative="1" as="geometry"/>
                </mxCell>
                <mxCell id="YJMpaRMmq_8bor_oWh7W-14" value="&lt;font style=&quot;font-size: 12px&quot;&gt;Сохранить регистры&lt;br&gt;AX, DS, ES, DX&lt;/font&gt;" style="whiteSpace=wrap;html=1;rounded=0;verticalAlign=middle;arcSize=6;labelPosition=center;verticalLabelPosition=middle;align=center;strokeWidth=2;" parent="WIyWlLk6GJQsqaUBKTNV-1" vertex="1">
                    <mxGeometry x="160" y="280" width="280" height="80" as="geometry"/>
                </mxCell>
                <mxCell id="YJMpaRMmq_8bor_oWh7W-28" value="" style="edgeStyle=orthogonalEdgeStyle;rounded=0;orthogonalLoop=1;jettySize=auto;html=1;endArrow=none;endFill=0;strokeWidth=2;" parent="WIyWlLk6GJQsqaUBKTNV-1" source="YJMpaRMmq_8bor_oWh7W-23" target="YJMpaRMmq_8bor_oWh7W-27" edge="1">
                    <mxGeometry relative="1" as="geometry"/>
                </mxCell>
                <mxCell id="YJMpaRMmq_8bor_oWh7W-23" value="&lt;font style=&quot;font-size: 12px&quot;&gt;Инкремент двух младших байтов счетчика реального времени по адресу (0040:006C)&lt;/font&gt;" style="whiteSpace=wrap;html=1;rounded=0;arcSize=6;strokeWidth=2;" parent="WIyWlLk6GJQsqaUBKTNV-1" vertex="1">
                    <mxGeometry x="160" y="400" width="280" height="80" as="geometry"/>
                </mxCell>
                <mxCell id="YJMpaRMmq_8bor_oWh7W-30" value="&lt;font style=&quot;font-size: 12px&quot;&gt;Да&lt;/font&gt;" style="edgeStyle=orthogonalEdgeStyle;rounded=0;orthogonalLoop=1;jettySize=auto;html=1;endArrow=classic;endFill=1;startArrow=none;startFill=0;labelPosition=center;verticalLabelPosition=top;align=center;verticalAlign=bottom;strokeWidth=2;" parent="WIyWlLk6GJQsqaUBKTNV-1" source="YJMpaRMmq_8bor_oWh7W-27" target="YJMpaRMmq_8bor_oWh7W-29" edge="1">
                    <mxGeometry x="-0.7273" y="10" relative="1" as="geometry">
                        <Array as="points">
                            <mxPoint x="540" y="560"/>
                        </Array>
                        <mxPoint as="offset"/>
                    </mxGeometry>
                </mxCell>
                <mxCell id="YJMpaRMmq_8bor_oWh7W-33" style="edgeStyle=orthogonalEdgeStyle;rounded=0;orthogonalLoop=1;jettySize=auto;html=1;exitX=0;exitY=0.5;exitDx=0;exitDy=0;startArrow=none;startFill=0;endArrow=none;endFill=0;strokeWidth=2;" parent="WIyWlLk6GJQsqaUBKTNV-1" source="YJMpaRMmq_8bor_oWh7W-27" edge="1">
                    <mxGeometry relative="1" as="geometry">
                        <mxPoint x="300" y="800" as="targetPoint"/>
                        <Array as="points">
                            <mxPoint x="60" y="560"/>
                            <mxPoint x="60" y="800"/>
                        </Array>
                    </mxGeometry>
                </mxCell>
                <mxCell id="YJMpaRMmq_8bor_oWh7W-27" value="&lt;font style=&quot;font-size: 12px&quot;&gt;2 младших байта счетчика &lt;br&gt;по адресу 0040:006Ch = 0?&lt;/font&gt;" style="rhombus;whiteSpace=wrap;html=1;rounded=0;arcSize=6;strokeWidth=2;" parent="WIyWlLk6GJQsqaUBKTNV-1" vertex="1">
                    <mxGeometry x="160" y="520" width="280" height="80" as="geometry"/>
                </mxCell>
                <mxCell id="YJMpaRMmq_8bor_oWh7W-32" style="edgeStyle=orthogonalEdgeStyle;rounded=0;orthogonalLoop=1;jettySize=auto;html=1;exitX=0.5;exitY=1;exitDx=0;exitDy=0;startArrow=none;startFill=0;endArrow=classic;endFill=1;strokeWidth=2;" parent="WIyWlLk6GJQsqaUBKTNV-1" source="YJMpaRMmq_8bor_oWh7W-29" edge="1">
                    <mxGeometry relative="1" as="geometry">
                        <mxPoint x="300" y="840" as="targetPoint"/>
                        <Array as="points">
                            <mxPoint x="540" y="800"/>
                            <mxPoint x="300" y="800"/>
                        </Array>
                    </mxGeometry>
                </mxCell>
                <mxCell id="YJMpaRMmq_8bor_oWh7W-29" value="&lt;font style=&quot;font-size: 12px&quot;&gt;Инкремент 2 старших байтов счетчика по адресу 0040:006Eh&lt;/font&gt;" style="whiteSpace=wrap;html=1;rounded=0;arcSize=6;strokeWidth=2;" parent="WIyWlLk6GJQsqaUBKTNV-1" vertex="1">
                    <mxGeometry x="440" y="640" width="200" height="80" as="geometry"/>
                </mxCell>
                <mxCell id="7c6u_z7MYFqaPLi4wbDH-0" value="А" style="ellipse;whiteSpace=wrap;html=1;aspect=fixed;strokeWidth=2;" parent="WIyWlLk6GJQsqaUBKTNV-1" vertex="1">
                    <mxGeometry x="260" y="840" width="80" height="80" as="geometry"/>
                </mxCell>
                <mxCell id="4" value="Начало" style="text;html=1;align=center;verticalAlign=middle;resizable=0;points=[];autosize=1;strokeColor=none;" vertex="1" parent="WIyWlLk6GJQsqaUBKTNV-1">
                    <mxGeometry x="270" y="70" width="60" height="20" as="geometry"/>
                </mxCell>
                <mxCell id="6" value="Начало" style="html=1;dashed=0;whitespace=wrap;shape=mxgraph.dfd.start;strokeWidth=2;" vertex="1" parent="WIyWlLk6GJQsqaUBKTNV-1">
                    <mxGeometry x="160" y="40" width="280" height="80" as="geometry"/>
                </mxCell>
            </root>
        </mxGraphModel>
    </diagram>
    <diagram id="4PLdLxgveLM03PC5nY2m" name="Page-3">
        <mxGraphModel dx="1112" dy="-883" grid="1" gridSize="10" guides="1" tooltips="1" connect="1" arrows="1" fold="1" page="1" pageScale="1" pageWidth="1169" pageHeight="1654" math="0" shadow="0">
            <root>
                <mxCell id="PTrQx92x1PSHm9LetNAU-0"/>
                <mxCell id="PTrQx92x1PSHm9LetNAU-1" parent="PTrQx92x1PSHm9LetNAU-0"/>
                <mxCell id="PTrQx92x1PSHm9LetNAU-2" value="" style="edgeStyle=orthogonalEdgeStyle;rounded=0;orthogonalLoop=1;jettySize=auto;html=1;startArrow=none;startFill=0;endArrow=none;endFill=0;strokeWidth=2;" parent="PTrQx92x1PSHm9LetNAU-1" source="PTrQx92x1PSHm9LetNAU-3" edge="1">
                    <mxGeometry relative="1" as="geometry">
                        <mxPoint x="520" y="1870" as="targetPoint"/>
                    </mxGeometry>
                </mxCell>
                <mxCell id="PTrQx92x1PSHm9LetNAU-3" value="Б" style="verticalLabelPosition=middle;verticalAlign=middle;html=1;shape=mxgraph.flowchart.on-page_reference;rounded=0;labelPosition=center;align=center;strokeWidth=2;" parent="PTrQx92x1PSHm9LetNAU-1" vertex="1">
                    <mxGeometry x="490" y="1730" width="60" height="60" as="geometry"/>
                </mxCell>
                <mxCell id="PTrQx92x1PSHm9LetNAU-4" style="edgeStyle=orthogonalEdgeStyle;rounded=0;orthogonalLoop=1;jettySize=auto;html=1;exitX=0.5;exitY=1;exitDx=0;exitDy=0;entryX=0.5;entryY=0;entryDx=0;entryDy=0;startArrow=none;startFill=0;endArrow=none;endFill=0;strokeWidth=2;" parent="PTrQx92x1PSHm9LetNAU-1" source="PTrQx92x1PSHm9LetNAU-5" target="PTrQx92x1PSHm9LetNAU-8" edge="1">
                    <mxGeometry relative="1" as="geometry"/>
                </mxCell>
                <mxCell id="PTrQx92x1PSHm9LetNAU-5" value="&lt;font style=&quot;font-size: 12px&quot;&gt;Декремент счетчика времени до отключения моторчика дисковода&lt;/font&gt;" style="whiteSpace=wrap;html=1;rounded=0;arcSize=6;strokeWidth=2;" parent="PTrQx92x1PSHm9LetNAU-1" vertex="1">
                    <mxGeometry x="380" y="1850" width="280" height="80" as="geometry"/>
                </mxCell>
                <mxCell id="PTrQx92x1PSHm9LetNAU-6" style="edgeStyle=orthogonalEdgeStyle;rounded=0;orthogonalLoop=1;jettySize=auto;html=1;exitX=1;exitY=0.5;exitDx=0;exitDy=0;startArrow=none;startFill=0;endArrow=classic;endFill=1;entryX=0.5;entryY=0;entryDx=0;entryDy=0;strokeWidth=2;" parent="PTrQx92x1PSHm9LetNAU-1" source="PTrQx92x1PSHm9LetNAU-8" edge="1">
                    <mxGeometry relative="1" as="geometry">
                        <mxPoint x="760" y="2090" as="targetPoint"/>
                        <Array as="points">
                            <mxPoint x="760" y="2010"/>
                        </Array>
                    </mxGeometry>
                </mxCell>
                <mxCell id="PTrQx92x1PSHm9LetNAU-7" style="edgeStyle=orthogonalEdgeStyle;rounded=0;orthogonalLoop=1;jettySize=auto;html=1;exitX=0;exitY=0.5;exitDx=0;exitDy=0;startArrow=none;startFill=0;endArrow=classic;endFill=1;entryX=0.5;entryY=0;entryDx=0;entryDy=0;strokeWidth=2;" parent="PTrQx92x1PSHm9LetNAU-1" source="PTrQx92x1PSHm9LetNAU-8" target="PTrQx92x1PSHm9LetNAU-13" edge="1">
                    <mxGeometry relative="1" as="geometry">
                        <mxPoint x="260" y="2340" as="targetPoint"/>
                        <Array as="points">
                            <mxPoint x="260" y="2010"/>
                            <mxPoint x="260" y="2330"/>
                            <mxPoint x="520" y="2330"/>
                        </Array>
                    </mxGeometry>
                </mxCell>
                <mxCell id="PTrQx92x1PSHm9LetNAU-8" value="&lt;font style=&quot;font-size: 12px&quot;&gt;Счетчик времени до отключения&lt;br&gt;моторчика дисковода = 0?&lt;br&gt;&lt;/font&gt;" style="rhombus;whiteSpace=wrap;html=1;rounded=0;arcSize=6;strokeWidth=2;" parent="PTrQx92x1PSHm9LetNAU-1" vertex="1">
                    <mxGeometry x="380" y="1970" width="280" height="80" as="geometry"/>
                </mxCell>
                <mxCell id="PTrQx92x1PSHm9LetNAU-9" style="edgeStyle=orthogonalEdgeStyle;rounded=0;orthogonalLoop=1;jettySize=auto;html=1;exitX=0.5;exitY=1;exitDx=0;exitDy=0;entryX=0.5;entryY=0;entryDx=0;entryDy=0;startArrow=none;startFill=0;endArrow=none;endFill=0;strokeWidth=2;" parent="PTrQx92x1PSHm9LetNAU-1" edge="1">
                    <mxGeometry relative="1" as="geometry">
                        <mxPoint x="760" y="2170" as="sourcePoint"/>
                        <mxPoint x="760" y="2210" as="targetPoint"/>
                    </mxGeometry>
                </mxCell>
                <mxCell id="PTrQx92x1PSHm9LetNAU-10" style="edgeStyle=orthogonalEdgeStyle;rounded=0;orthogonalLoop=1;jettySize=auto;html=1;exitX=0.5;exitY=1;exitDx=0;exitDy=0;startArrow=none;startFill=0;endArrow=none;endFill=0;strokeWidth=2;" parent="PTrQx92x1PSHm9LetNAU-1" edge="1">
                    <mxGeometry relative="1" as="geometry">
                        <mxPoint x="520" y="2330" as="targetPoint"/>
                        <Array as="points">
                            <mxPoint x="760" y="2330"/>
                        </Array>
                        <mxPoint x="760" y="2290" as="sourcePoint"/>
                    </mxGeometry>
                </mxCell>
                <mxCell id="PTrQx92x1PSHm9LetNAU-11" style="edgeStyle=orthogonalEdgeStyle;rounded=0;orthogonalLoop=1;jettySize=auto;html=1;exitX=1;exitY=0.5;exitDx=0;exitDy=0;startArrow=none;startFill=0;endArrow=classic;endFill=1;strokeWidth=2;" parent="PTrQx92x1PSHm9LetNAU-1" source="PTrQx92x1PSHm9LetNAU-13" edge="1">
                    <mxGeometry relative="1" as="geometry">
                        <mxPoint x="760" y="2490" as="targetPoint"/>
                        <Array as="points">
                            <mxPoint x="760" y="2410"/>
                            <mxPoint x="760" y="2490"/>
                        </Array>
                    </mxGeometry>
                </mxCell>
                <mxCell id="PTrQx92x1PSHm9LetNAU-12" style="edgeStyle=orthogonalEdgeStyle;rounded=0;orthogonalLoop=1;jettySize=auto;html=1;exitX=0;exitY=0.5;exitDx=0;exitDy=0;startArrow=none;startFill=0;endArrow=classic;endFill=1;strokeWidth=2;" parent="PTrQx92x1PSHm9LetNAU-1" source="PTrQx92x1PSHm9LetNAU-13" edge="1">
                    <mxGeometry relative="1" as="geometry">
                        <mxPoint x="280" y="2490" as="targetPoint"/>
                    </mxGeometry>
                </mxCell>
                <mxCell id="PTrQx92x1PSHm9LetNAU-13" value="Флаг четности PF установлен в &lt;br&gt;0040:0314?" style="rhombus;whiteSpace=wrap;html=1;rounded=0;arcSize=6;strokeWidth=2;" parent="PTrQx92x1PSHm9LetNAU-1" vertex="1">
                    <mxGeometry x="380" y="2370" width="280" height="80" as="geometry"/>
                </mxCell>
                <mxCell id="PTrQx92x1PSHm9LetNAU-14" style="edgeStyle=orthogonalEdgeStyle;rounded=0;orthogonalLoop=1;jettySize=auto;html=1;exitX=0.5;exitY=1;exitDx=0;exitDy=0;entryX=0.5;entryY=0;entryDx=0;entryDy=0;startArrow=none;startFill=0;endArrow=classic;endFill=1;strokeWidth=2;" parent="PTrQx92x1PSHm9LetNAU-1" source="PTrQx92x1PSHm9LetNAU-15" target="PTrQx92x1PSHm9LetNAU-19" edge="1">
                    <mxGeometry relative="1" as="geometry"/>
                </mxCell>
                <mxCell id="PTrQx92x1PSHm9LetNAU-15" value="&lt;span&gt;Косвенный вызов прерывания&lt;br&gt;1Ch&lt;br&gt;&lt;/span&gt;" style="whiteSpace=wrap;html=1;rounded=0;arcSize=6;strokeWidth=2;" parent="PTrQx92x1PSHm9LetNAU-1" vertex="1">
                    <mxGeometry x="130" y="2491" width="280" height="80" as="geometry"/>
                </mxCell>
                <mxCell id="PTrQx92x1PSHm9LetNAU-16" style="edgeStyle=orthogonalEdgeStyle;rounded=0;orthogonalLoop=1;jettySize=auto;html=1;exitX=0.5;exitY=1;exitDx=0;exitDy=0;entryX=0.5;entryY=0;entryDx=0;entryDy=0;startArrow=none;startFill=0;endArrow=classic;endFill=1;strokeWidth=2;" parent="PTrQx92x1PSHm9LetNAU-1" source="PTrQx92x1PSHm9LetNAU-17" target="PTrQx92x1PSHm9LetNAU-19" edge="1">
                    <mxGeometry relative="1" as="geometry"/>
                </mxCell>
                <mxCell id="PTrQx92x1PSHm9LetNAU-17" value="&lt;font style=&quot;font-size: 12px&quot;&gt;Вызов прерывания&lt;br&gt;1Ch&lt;/font&gt;" style="verticalLabelPosition=middle;verticalAlign=middle;html=1;shape=process;whiteSpace=wrap;rounded=0;size=0.14;arcSize=6;labelPosition=center;align=center;strokeWidth=2;" parent="PTrQx92x1PSHm9LetNAU-1" vertex="1">
                    <mxGeometry x="620" y="2491" width="280" height="80" as="geometry"/>
                </mxCell>
                <mxCell id="PTrQx92x1PSHm9LetNAU-18" style="edgeStyle=orthogonalEdgeStyle;rounded=0;orthogonalLoop=1;jettySize=auto;html=1;exitX=0.5;exitY=1;exitDx=0;exitDy=0;entryX=0.5;entryY=0;entryDx=0;entryDy=0;startArrow=none;startFill=0;endArrow=none;endFill=0;strokeWidth=2;" parent="PTrQx92x1PSHm9LetNAU-1" source="PTrQx92x1PSHm9LetNAU-19" target="PTrQx92x1PSHm9LetNAU-21" edge="1">
                    <mxGeometry relative="1" as="geometry"/>
                </mxCell>
                <mxCell id="PTrQx92x1PSHm9LetNAU-19" value="&lt;span&gt;Вызов процедуры&lt;br&gt;sub_1&lt;br&gt;&lt;/span&gt;" style="verticalLabelPosition=middle;verticalAlign=middle;html=1;shape=process;whiteSpace=wrap;rounded=0;size=0.14;arcSize=6;labelPosition=center;align=center;strokeWidth=2;" parent="PTrQx92x1PSHm9LetNAU-1" vertex="1">
                    <mxGeometry x="380" y="2650" width="280" height="80" as="geometry"/>
                </mxCell>
                <mxCell id="PTrQx92x1PSHm9LetNAU-20" style="edgeStyle=orthogonalEdgeStyle;rounded=0;orthogonalLoop=1;jettySize=auto;html=1;exitX=0.5;exitY=1;exitDx=0;exitDy=0;entryX=0.5;entryY=0;entryDx=0;entryDy=0;startArrow=none;startFill=0;endArrow=none;endFill=0;strokeWidth=2;" parent="PTrQx92x1PSHm9LetNAU-1" source="PTrQx92x1PSHm9LetNAU-21" target="PTrQx92x1PSHm9LetNAU-23" edge="1">
                    <mxGeometry relative="1" as="geometry"/>
                </mxCell>
                <mxCell id="PTrQx92x1PSHm9LetNAU-21" value="&lt;font style=&quot;font-size: 12px&quot;&gt;Сброс контроллера прерываний&lt;/font&gt;" style="whiteSpace=wrap;html=1;rounded=0;arcSize=6;strokeWidth=2;" parent="PTrQx92x1PSHm9LetNAU-1" vertex="1">
                    <mxGeometry x="380" y="2770" width="280" height="80" as="geometry"/>
                </mxCell>
                <mxCell id="PTrQx92x1PSHm9LetNAU-22" style="edgeStyle=orthogonalEdgeStyle;rounded=0;orthogonalLoop=1;jettySize=auto;html=1;exitX=0.5;exitY=1;exitDx=0;exitDy=0;entryX=0.5;entryY=0;entryDx=0;entryDy=0;entryPerimeter=0;startArrow=none;startFill=0;endArrow=none;endFill=0;strokeWidth=2;" parent="PTrQx92x1PSHm9LetNAU-1" source="PTrQx92x1PSHm9LetNAU-23" target="PTrQx92x1PSHm9LetNAU-24" edge="1">
                    <mxGeometry relative="1" as="geometry"/>
                </mxCell>
                <mxCell id="PTrQx92x1PSHm9LetNAU-23" value="&lt;span&gt;Восстановление регистров&lt;br&gt;AX, DS, DX, ES&lt;br&gt;&lt;/span&gt;" style="whiteSpace=wrap;html=1;rounded=0;arcSize=6;strokeWidth=2;" parent="PTrQx92x1PSHm9LetNAU-1" vertex="1">
                    <mxGeometry x="380" y="2890" width="280" height="80" as="geometry"/>
                </mxCell>
                <mxCell id="PTrQx92x1PSHm9LetNAU-24" value="&lt;font style=&quot;font-size: 12px&quot;&gt;Конец&lt;/font&gt;" style="strokeWidth=2;html=1;shape=mxgraph.flowchart.terminator;whiteSpace=wrap;" parent="PTrQx92x1PSHm9LetNAU-1" vertex="1">
                    <mxGeometry x="380" y="3010" width="280" height="80" as="geometry"/>
                </mxCell>
                <mxCell id="jrrK-UpiYWsVEIdKNfRv-0" value="&lt;font style=&quot;font-size: 12px&quot;&gt;Установка флага отключения моторчика дисковода&lt;/font&gt;" style="whiteSpace=wrap;html=1;rounded=0;arcSize=6;strokeWidth=2;" parent="PTrQx92x1PSHm9LetNAU-1" vertex="1">
                    <mxGeometry x="620" y="2090" width="280" height="80" as="geometry"/>
                </mxCell>
                <mxCell id="jrrK-UpiYWsVEIdKNfRv-1" value="&lt;font style=&quot;font-size: 12px&quot;&gt;Отправка команды отключения 0Ch в порт дисковода (3F2h)&lt;/font&gt;" style="whiteSpace=wrap;html=1;rounded=0;arcSize=6;strokeWidth=2;" parent="PTrQx92x1PSHm9LetNAU-1" vertex="1">
                    <mxGeometry x="620" y="2210" width="280" height="80" as="geometry"/>
                </mxCell>
                <mxCell id="LpbkbNCjLf9gBU9lpW_K-0" value="Да" style="text;html=1;align=center;verticalAlign=middle;resizable=0;points=[];autosize=1;strokeColor=none;" vertex="1" parent="PTrQx92x1PSHm9LetNAU-1">
                    <mxGeometry x="655" y="2380" width="30" height="20" as="geometry"/>
                </mxCell>
            </root>
        </mxGraphModel>
    </diagram>
    <diagram id="SMo9lqOiyiK44Y0W1xno" name="Page-2">
        <mxGraphModel dx="2281" dy="771" grid="1" gridSize="10" guides="1" tooltips="1" connect="1" arrows="1" fold="1" page="1" pageScale="1" pageWidth="1169" pageHeight="1654" math="0" shadow="0">
            <root>
                <mxCell id="3hFEeD8surCcH0dSWmG2-0"/>
                <mxCell id="3hFEeD8surCcH0dSWmG2-1" parent="3hFEeD8surCcH0dSWmG2-0"/>
                <mxCell id="l-EBOWrs5vo055zlGGoX-1" style="edgeStyle=orthogonalEdgeStyle;rounded=0;orthogonalLoop=1;jettySize=auto;html=1;exitX=0.5;exitY=1;exitDx=0;exitDy=0;exitPerimeter=0;entryX=0.5;entryY=0;entryDx=0;entryDy=0;startArrow=none;startFill=0;endArrow=none;endFill=0;strokeWidth=2;" parent="3hFEeD8surCcH0dSWmG2-1" source="3hFEeD8surCcH0dSWmG2-2" target="T3StZe7bPnIQIUZtU70U-0" edge="1">
                    <mxGeometry relative="1" as="geometry"/>
                </mxCell>
                <mxCell id="3hFEeD8surCcH0dSWmG2-2" value="&lt;font style=&quot;font-size: 12px&quot;&gt;Начало&lt;/font&gt;" style="strokeWidth=2;html=1;shape=mxgraph.flowchart.terminator;whiteSpace=wrap;" parent="3hFEeD8surCcH0dSWmG2-1" vertex="1">
                    <mxGeometry x="-760" y="80" width="280" height="80" as="geometry"/>
                </mxCell>
                <mxCell id="l-EBOWrs5vo055zlGGoX-2" style="edgeStyle=orthogonalEdgeStyle;rounded=0;orthogonalLoop=1;jettySize=auto;html=1;exitX=0.5;exitY=1;exitDx=0;exitDy=0;entryX=0.5;entryY=0;entryDx=0;entryDy=0;startArrow=none;startFill=0;endArrow=none;endFill=0;strokeWidth=2;" parent="3hFEeD8surCcH0dSWmG2-1" source="T3StZe7bPnIQIUZtU70U-0" target="T3StZe7bPnIQIUZtU70U-1" edge="1">
                    <mxGeometry relative="1" as="geometry"/>
                </mxCell>
                <mxCell id="T3StZe7bPnIQIUZtU70U-0" value="&lt;span&gt;Сохранение регистров&lt;br&gt;DS, AX&lt;br&gt;&lt;/span&gt;" style="whiteSpace=wrap;html=1;rounded=0;arcSize=6;strokeWidth=2;" parent="3hFEeD8surCcH0dSWmG2-1" vertex="1">
                    <mxGeometry x="-760" y="200" width="280" height="80" as="geometry"/>
                </mxCell>
                <mxCell id="l-EBOWrs5vo055zlGGoX-3" style="edgeStyle=orthogonalEdgeStyle;rounded=0;orthogonalLoop=1;jettySize=auto;html=1;exitX=0.5;exitY=1;exitDx=0;exitDy=0;entryX=0.5;entryY=0;entryDx=0;entryDy=0;startArrow=none;startFill=0;endArrow=none;endFill=0;strokeWidth=2;" parent="3hFEeD8surCcH0dSWmG2-1" source="T3StZe7bPnIQIUZtU70U-1" target="l-EBOWrs5vo055zlGGoX-0" edge="1">
                    <mxGeometry relative="1" as="geometry"/>
                </mxCell>
                <mxCell id="T3StZe7bPnIQIUZtU70U-1" value="&lt;span&gt;Загрузка младшего байта регистра&lt;br&gt;EFLAGS в AH&lt;br&gt;&lt;/span&gt;" style="whiteSpace=wrap;html=1;rounded=0;arcSize=6;strokeWidth=2;" parent="3hFEeD8surCcH0dSWmG2-1" vertex="1">
                    <mxGeometry x="-760" y="440" width="280" height="80" as="geometry"/>
                </mxCell>
                <mxCell id="l-EBOWrs5vo055zlGGoX-5" style="edgeStyle=orthogonalEdgeStyle;rounded=0;orthogonalLoop=1;jettySize=auto;html=1;exitX=1;exitY=0.5;exitDx=0;exitDy=0;entryX=0.5;entryY=0;entryDx=0;entryDy=0;startArrow=none;startFill=0;endArrow=classic;endFill=1;strokeWidth=2;" parent="3hFEeD8surCcH0dSWmG2-1" source="l-EBOWrs5vo055zlGGoX-0" target="l-EBOWrs5vo055zlGGoX-4" edge="1">
                    <mxGeometry relative="1" as="geometry"/>
                </mxCell>
                <mxCell id="l-EBOWrs5vo055zlGGoX-7" style="edgeStyle=orthogonalEdgeStyle;rounded=0;orthogonalLoop=1;jettySize=auto;html=1;exitX=0;exitY=0.5;exitDx=0;exitDy=0;entryX=0.5;entryY=0;entryDx=0;entryDy=0;startArrow=none;startFill=0;endArrow=classic;endFill=1;strokeWidth=2;" parent="3hFEeD8surCcH0dSWmG2-1" source="l-EBOWrs5vo055zlGGoX-0" target="l-EBOWrs5vo055zlGGoX-6" edge="1">
                    <mxGeometry relative="1" as="geometry"/>
                </mxCell>
                <mxCell id="l-EBOWrs5vo055zlGGoX-0" value="&lt;font style=&quot;font-size: 12px&quot;&gt;Установлены ли DF и старший&lt;br&gt;&amp;nbsp;бит IOPL в 0040:0314?&lt;/font&gt;" style="rhombus;whiteSpace=wrap;html=1;rounded=0;arcSize=6;strokeWidth=2;" parent="3hFEeD8surCcH0dSWmG2-1" vertex="1">
                    <mxGeometry x="-760" y="560" width="280" height="80" as="geometry"/>
                </mxCell>
                <mxCell id="l-EBOWrs5vo055zlGGoX-12" style="edgeStyle=orthogonalEdgeStyle;rounded=0;orthogonalLoop=1;jettySize=auto;html=1;exitX=0.5;exitY=1;exitDx=0;exitDy=0;startArrow=none;startFill=0;endArrow=classic;endFill=1;entryX=0.5;entryY=0;entryDx=0;entryDy=0;strokeWidth=2;" parent="3hFEeD8surCcH0dSWmG2-1" source="l-EBOWrs5vo055zlGGoX-4" target="l-EBOWrs5vo055zlGGoX-8" edge="1">
                    <mxGeometry relative="1" as="geometry">
                        <mxPoint x="-620" y="840" as="targetPoint"/>
                    </mxGeometry>
                </mxCell>
                <mxCell id="l-EBOWrs5vo055zlGGoX-4" value="&lt;font style=&quot;font-size: 12px&quot;&gt;Сброс флага прерываний IF&lt;/font&gt;" style="whiteSpace=wrap;html=1;rounded=0;arcSize=6;strokeWidth=2;" parent="3hFEeD8surCcH0dSWmG2-1" vertex="1">
                    <mxGeometry x="-520" y="680" width="280" height="80" as="geometry"/>
                </mxCell>
                <mxCell id="l-EBOWrs5vo055zlGGoX-11" style="edgeStyle=orthogonalEdgeStyle;rounded=0;orthogonalLoop=1;jettySize=auto;html=1;exitX=0.5;exitY=1;exitDx=0;exitDy=0;startArrow=none;startFill=0;endArrow=classic;endFill=1;strokeWidth=2;" parent="3hFEeD8surCcH0dSWmG2-1" source="l-EBOWrs5vo055zlGGoX-6" target="l-EBOWrs5vo055zlGGoX-8" edge="1">
                    <mxGeometry relative="1" as="geometry"/>
                </mxCell>
                <mxCell id="l-EBOWrs5vo055zlGGoX-6" value="&lt;span&gt;Запрет маскируемых прерываний инструкцией&lt;br&gt;CLI&lt;br&gt;&lt;/span&gt;" style="whiteSpace=wrap;html=1;rounded=0;arcSize=6;strokeWidth=2;" parent="3hFEeD8surCcH0dSWmG2-1" vertex="1">
                    <mxGeometry x="-1000" y="680" width="280" height="80" as="geometry"/>
                </mxCell>
                <mxCell id="l-EBOWrs5vo055zlGGoX-13" style="edgeStyle=orthogonalEdgeStyle;rounded=0;orthogonalLoop=1;jettySize=auto;html=1;exitX=0.5;exitY=1;exitDx=0;exitDy=0;startArrow=none;startFill=0;endArrow=none;endFill=0;strokeWidth=2;" parent="3hFEeD8surCcH0dSWmG2-1" source="l-EBOWrs5vo055zlGGoX-8" target="l-EBOWrs5vo055zlGGoX-9" edge="1">
                    <mxGeometry relative="1" as="geometry"/>
                </mxCell>
                <mxCell id="l-EBOWrs5vo055zlGGoX-8" value="&lt;font style=&quot;font-size: 12px&quot;&gt;Загрузка AH в младший байт регистра EFLAGS&lt;/font&gt;" style="whiteSpace=wrap;html=1;rounded=0;arcSize=6;strokeWidth=2;" parent="3hFEeD8surCcH0dSWmG2-1" vertex="1">
                    <mxGeometry x="-760" y="840" width="280" height="80" as="geometry"/>
                </mxCell>
                <mxCell id="l-EBOWrs5vo055zlGGoX-14" style="edgeStyle=orthogonalEdgeStyle;rounded=0;orthogonalLoop=1;jettySize=auto;html=1;exitX=0.5;exitY=1;exitDx=0;exitDy=0;entryX=0.5;entryY=0;entryDx=0;entryDy=0;entryPerimeter=0;startArrow=none;startFill=0;endArrow=none;endFill=0;strokeWidth=2;" parent="3hFEeD8surCcH0dSWmG2-1" source="l-EBOWrs5vo055zlGGoX-9" target="l-EBOWrs5vo055zlGGoX-10" edge="1">
                    <mxGeometry relative="1" as="geometry"/>
                </mxCell>
                <mxCell id="l-EBOWrs5vo055zlGGoX-9" value="&lt;font style=&quot;font-size: 12px&quot;&gt;Восстановление регистров AX, DS&lt;/font&gt;" style="whiteSpace=wrap;html=1;rounded=0;arcSize=6;strokeWidth=2;" parent="3hFEeD8surCcH0dSWmG2-1" vertex="1">
                    <mxGeometry x="-760" y="960" width="280" height="80" as="geometry"/>
                </mxCell>
                <mxCell id="l-EBOWrs5vo055zlGGoX-10" value="&lt;font style=&quot;font-size: 12px&quot;&gt;Конец&lt;/font&gt;" style="strokeWidth=2;html=1;shape=mxgraph.flowchart.terminator;whiteSpace=wrap;" parent="3hFEeD8surCcH0dSWmG2-1" vertex="1">
                    <mxGeometry x="-760" y="1080" width="280" height="80" as="geometry"/>
                </mxCell>
                <mxCell id="hmYaRsFD88xVEkdwvIxV-0" value="Да" style="text;html=1;align=center;verticalAlign=middle;resizable=0;points=[];autosize=1;strokeColor=none;fillColor=none;strokeWidth=2;" parent="3hFEeD8surCcH0dSWmG2-1" vertex="1">
                    <mxGeometry x="-480" y="570" width="30" height="20" as="geometry"/>
                </mxCell>
                <mxCell id="hmYaRsFD88xVEkdwvIxV-1" value="&lt;span&gt;Загрузка в DS адреса&lt;br&gt;0040:0000&lt;br&gt;&lt;/span&gt;" style="whiteSpace=wrap;html=1;rounded=0;arcSize=6;strokeWidth=2;" parent="3hFEeD8surCcH0dSWmG2-1" vertex="1">
                    <mxGeometry x="-760" y="320" width="280" height="80" as="geometry"/>
                </mxCell>
            </root>
        </mxGraphModel>
    </diagram>
    <diagram id="pvptHs4O_jrLpWgV0axq" name="Страница 4">
        <mxGraphModel dx="1112" dy="771" grid="1" gridSize="10" guides="1" tooltips="1" connect="1" arrows="1" fold="1" page="1" pageScale="1" pageWidth="827" pageHeight="1169" math="0" shadow="0">
            <root>
                <mxCell id="eQSLLLaja5Yvgr1dc8NQ-0"/>
                <mxCell id="eQSLLLaja5Yvgr1dc8NQ-1" parent="eQSLLLaja5Yvgr1dc8NQ-0"/>
            </root>
        </mxGraphModel>
    </diagram>
</mxfile>